<svg width="43" height="43" viewBox="0 0 43 43" fill="none" xmlns="http://www.w3.org/2000/svg">
<path d="M40.85 31.175V11.825C40.85 10.0405 39.4095 8.60001 37.625 8.60001H7.5035C5.719 8.60001 4.2785 10.0405 4.2785 11.825V31.175C4.2785 32.9595 5.719 34.4 7.5035 34.4H37.625C39.4095 34.4 40.85 32.9595 40.85 31.175ZM38.0335 11.5885C38.743 12.298 38.356 13.029 37.969 13.3945L29.24 21.3925L37.625 30.1215C37.883 30.4225 38.055 30.8955 37.754 31.218C37.4745 31.562 36.8295 31.5405 36.55 31.3255L27.1545 23.306L22.5535 27.4985L17.974 23.306L8.5785 31.3255C8.299 31.5405 7.654 31.562 7.3745 31.218C7.0735 30.8955 7.2455 30.4225 7.5035 30.1215L15.8885 21.3925L7.1595 13.3945C6.7725 13.029 6.3855 12.298 7.095 11.5885C7.8045 10.879 8.5355 11.223 9.1375 11.739L22.5535 22.575L35.991 11.739C36.593 11.223 37.324 10.879 38.0335 11.5885Z" fill="#8E98A8"/>
</svg>
