<svg width="24" height="25" viewBox="0 0 24 25" fill="none" xmlns="http://www.w3.org/2000/svg">
<path d="M9.01714 5.82352L7.14286 3.99011C7.56207 2.96114 8.29208 2.07795 9.23786 1.45547C10.1837 0.832997 11.3014 0.500063 12.4457 0.5C15.6 0.5 18.16 2.974 18.16 6.02232V8.23125H19.3029C19.9091 8.23125 20.4904 8.46397 20.9191 8.87823C21.3478 9.29248 21.5886 9.85433 21.5886 10.4402V17.9505L11.5314 8.23125H15.8743V6.02232C15.8743 4.18891 14.3429 2.70893 12.4457 2.70893C10.6286 2.70893 9.14286 4.08951 9.01714 5.82352ZM24 23.0973L22.5486 24.5L20.9714 22.9758C20.56 23.4176 19.9657 23.6937 19.3029 23.6937H5.58857C4.32 23.6937 3.30286 22.7108 3.30286 21.4848V10.4402C3.30286 9.85433 3.54367 9.29248 3.97233 8.87823C4.40098 8.46397 4.98236 8.23125 5.58857 8.23125H5.71429L0 2.70893L1.46286 1.30626L24 23.0973ZM14.56 16.7798L11.6 13.9192C10.7314 14.2395 10.16 15.0347 10.16 15.9625C10.16 16.5483 10.4008 17.1102 10.8295 17.5244C11.2581 17.9387 11.8395 18.1714 12.4457 18.1714C13.4057 18.1714 14.2286 17.6192 14.56 16.7798Z" fill="#8E98A8"/>
</svg>
